<mxfile host="app.diagrams.net" modified="2023-06-23T17:49:13.677Z" agent="Mozilla/5.0 (Macintosh; Intel Mac OS X 10_15_7) AppleWebKit/537.36 (KHTML, like Gecko) Chrome/114.0.0.0 Safari/537.36" etag="B0hHk6gSU-MNaXSMyJMw" version="21.5.0" type="device">
  <diagram name="Página-1" id="oSS2AUJUxKguezFAX-S3">
    <mxGraphModel dx="2765" dy="1508" grid="1" gridSize="10" guides="1" tooltips="1" connect="1" arrows="1" fold="1" page="1" pageScale="1" pageWidth="1654" pageHeight="1169" math="0" shadow="0">
      <root>
        <mxCell id="0" />
        <mxCell id="1" parent="0" />
        <mxCell id="HwzqUsXnmvB1bE3sRp5B-18" value="" style="group" vertex="1" connectable="0" parent="1">
          <mxGeometry x="420" y="200" width="870" height="590" as="geometry" />
        </mxCell>
        <mxCell id="HwzqUsXnmvB1bE3sRp5B-17" value="" style="rounded=0;whiteSpace=wrap;html=1;strokeColor=none;" vertex="1" parent="HwzqUsXnmvB1bE3sRp5B-18">
          <mxGeometry width="870" height="590" as="geometry" />
        </mxCell>
        <mxCell id="HwzqUsXnmvB1bE3sRp5B-1" value="" style="points=[[0.35,0,0],[0.98,0.51,0],[1,0.71,0],[0.67,1,0],[0,0.795,0],[0,0.65,0]];verticalLabelPosition=bottom;sketch=0;html=1;verticalAlign=top;aspect=fixed;align=center;pointerEvents=1;shape=mxgraph.cisco19.user;fillColor=#005073;strokeColor=none;" vertex="1" parent="HwzqUsXnmvB1bE3sRp5B-18">
          <mxGeometry x="50" y="113.91999999999996" width="100" height="100" as="geometry" />
        </mxCell>
        <mxCell id="HwzqUsXnmvB1bE3sRp5B-2" value="" style="outlineConnect=0;dashed=0;verticalLabelPosition=bottom;verticalAlign=top;align=center;html=1;shape=mxgraph.aws3.android;fillColor=#8CC64F;gradientColor=none;strokeColor=#666666;" vertex="1" parent="HwzqUsXnmvB1bE3sRp5B-18">
          <mxGeometry x="385" y="101.19999999999999" width="109.75" height="125.43" as="geometry" />
        </mxCell>
        <mxCell id="HwzqUsXnmvB1bE3sRp5B-5" style="edgeStyle=orthogonalEdgeStyle;rounded=0;orthogonalLoop=1;jettySize=auto;html=1;entryX=0;entryY=0.5;entryDx=0;entryDy=0;entryPerimeter=0;strokeWidth=3;strokeColor=#4D4D4D;startArrow=classic;startFill=1;" edge="1" parent="HwzqUsXnmvB1bE3sRp5B-18" source="HwzqUsXnmvB1bE3sRp5B-1" target="HwzqUsXnmvB1bE3sRp5B-2">
          <mxGeometry relative="1" as="geometry" />
        </mxCell>
        <mxCell id="HwzqUsXnmvB1bE3sRp5B-7" style="edgeStyle=orthogonalEdgeStyle;rounded=0;orthogonalLoop=1;jettySize=auto;html=1;exitX=0.005;exitY=0.63;exitDx=0;exitDy=0;exitPerimeter=0;entryX=1;entryY=0.5;entryDx=0;entryDy=0;entryPerimeter=0;startArrow=classic;startFill=1;strokeWidth=3;strokeColor=#4D4D4D;" edge="1" parent="HwzqUsXnmvB1bE3sRp5B-18" source="HwzqUsXnmvB1bE3sRp5B-3" target="HwzqUsXnmvB1bE3sRp5B-2">
          <mxGeometry relative="1" as="geometry" />
        </mxCell>
        <mxCell id="HwzqUsXnmvB1bE3sRp5B-3" value="" style="sketch=0;html=1;dashed=0;whitespace=wrap;fillColor=#2875E2;strokeColor=#ffffff;points=[[0.005,0.63,0],[0.1,0.2,0],[0.9,0.2,0],[0.5,0,0],[0.995,0.63,0],[0.72,0.99,0],[0.5,1,0],[0.28,0.99,0]];verticalLabelPosition=bottom;align=center;verticalAlign=top;shape=mxgraph.kubernetes.icon;prIcon=api;strokeWidth=3;" vertex="1" parent="HwzqUsXnmvB1bE3sRp5B-18">
          <mxGeometry x="707" y="96.19999999999999" width="112.08" height="107.6" as="geometry" />
        </mxCell>
        <mxCell id="HwzqUsXnmvB1bE3sRp5B-4" value="" style="image;sketch=0;aspect=fixed;html=1;points=[];align=center;fontSize=12;image=img/lib/mscae/Cache_Redis_Product.svg;" vertex="1" parent="HwzqUsXnmvB1bE3sRp5B-18">
          <mxGeometry x="385" y="405" width="109.52" height="92" as="geometry" />
        </mxCell>
        <mxCell id="HwzqUsXnmvB1bE3sRp5B-6" style="edgeStyle=orthogonalEdgeStyle;rounded=0;orthogonalLoop=1;jettySize=auto;html=1;exitX=0.5;exitY=1;exitDx=0;exitDy=0;exitPerimeter=0;entryX=0.5;entryY=0.011;entryDx=0;entryDy=0;entryPerimeter=0;strokeWidth=3;startArrow=classic;startFill=1;strokeColor=#4D4D4D;" edge="1" parent="HwzqUsXnmvB1bE3sRp5B-18" source="HwzqUsXnmvB1bE3sRp5B-2" target="HwzqUsXnmvB1bE3sRp5B-4">
          <mxGeometry relative="1" as="geometry" />
        </mxCell>
        <mxCell id="HwzqUsXnmvB1bE3sRp5B-8" value="&lt;font style=&quot;font-size: 18px;&quot;&gt;Cliente&lt;br&gt;HTTP&lt;br&gt;&lt;/font&gt;" style="text;html=1;strokeColor=none;fillColor=none;align=center;verticalAlign=middle;whiteSpace=wrap;rounded=0;" vertex="1" parent="HwzqUsXnmvB1bE3sRp5B-18">
          <mxGeometry x="60" y="42.5" width="80" height="45" as="geometry" />
        </mxCell>
        <mxCell id="HwzqUsXnmvB1bE3sRp5B-9" value="&lt;font style=&quot;font-size: 18px;&quot;&gt;Aplicação Javascript&lt;br&gt;(NodeJS)&lt;br&gt;&lt;/font&gt;" style="text;html=1;strokeColor=none;fillColor=none;align=center;verticalAlign=middle;whiteSpace=wrap;rounded=0;" vertex="1" parent="HwzqUsXnmvB1bE3sRp5B-18">
          <mxGeometry x="349.76" y="40" width="180" height="50" as="geometry" />
        </mxCell>
        <mxCell id="HwzqUsXnmvB1bE3sRp5B-10" value="&lt;font style=&quot;font-size: 18px;&quot;&gt;Cache In-Memory&lt;br&gt;(Redis)&lt;br&gt;&lt;/font&gt;" style="text;html=1;strokeColor=none;fillColor=none;align=center;verticalAlign=middle;whiteSpace=wrap;rounded=0;" vertex="1" parent="HwzqUsXnmvB1bE3sRp5B-18">
          <mxGeometry x="349.76" y="505" width="180" height="55" as="geometry" />
        </mxCell>
        <mxCell id="HwzqUsXnmvB1bE3sRp5B-11" value="&lt;font style=&quot;font-size: 18px;&quot;&gt;API Interna ou Externa&lt;br&gt;&lt;/font&gt;" style="text;html=1;strokeColor=none;fillColor=none;align=center;verticalAlign=middle;whiteSpace=wrap;rounded=0;" vertex="1" parent="HwzqUsXnmvB1bE3sRp5B-18">
          <mxGeometry x="673.04" y="40" width="180" height="50" as="geometry" />
        </mxCell>
      </root>
    </mxGraphModel>
  </diagram>
</mxfile>
